<mxfile host="app.diagrams.net" modified="2023-01-27T22:13:29.219Z" agent="5.0 (Windows NT 10.0; Win64; x64) AppleWebKit/537.36 (KHTML, like Gecko) Chrome/109.0.0.0 Safari/537.36 Edg/109.0.1518.61" etag="Mx5Dy4nA7eSbORN4C4g-" version="20.8.11" type="github">
  <diagram id="R2lEEEUBdFMjLlhIrx00" name="Page-1">
    <mxGraphModel dx="1991" dy="2231" grid="1" gridSize="10" guides="1" tooltips="1" connect="1" arrows="1" fold="1" page="1" pageScale="1" pageWidth="850" pageHeight="1100" math="0" shadow="0" extFonts="Permanent Marker^https://fonts.googleapis.com/css?family=Permanent+Marker">
      <root>
        <mxCell id="0" />
        <mxCell id="1" parent="0" />
        <mxCell id="Q22fmm9m_kI0UHP6HRj3-3" value="&lt;b&gt;&lt;font style=&quot;font-size: 24px;&quot;&gt;MAIL ORDER&lt;/font&gt;&lt;/b&gt;" style="text;html=1;strokeColor=none;fillColor=none;align=center;verticalAlign=middle;whiteSpace=wrap;rounded=0;fontSize=11;" vertex="1" parent="1">
          <mxGeometry x="40" y="-1050" width="60" height="30" as="geometry" />
        </mxCell>
        <mxCell id="Q22fmm9m_kI0UHP6HRj3-5" value="&lt;font style=&quot;font-size: 13px;&quot;&gt;EMPLOYEES&lt;/font&gt;" style="rounded=1;arcSize=10;whiteSpace=wrap;html=1;align=center;fontSize=24;" vertex="1" parent="1">
          <mxGeometry x="290" y="-610" width="100" height="40" as="geometry" />
        </mxCell>
        <mxCell id="Q22fmm9m_kI0UHP6HRj3-7" value="Employees" style="shape=table;startSize=30;container=1;collapsible=1;childLayout=tableLayout;fixedRows=1;rowLines=0;fontStyle=1;align=center;resizeLast=1;fontSize=13;" vertex="1" parent="1">
          <mxGeometry x="220" y="-1060" width="180" height="150" as="geometry" />
        </mxCell>
        <mxCell id="Q22fmm9m_kI0UHP6HRj3-8" value="" style="shape=tableRow;horizontal=0;startSize=0;swimlaneHead=0;swimlaneBody=0;fillColor=none;collapsible=0;dropTarget=0;points=[[0,0.5],[1,0.5]];portConstraint=eastwest;top=0;left=0;right=0;bottom=1;fontSize=13;" vertex="1" parent="Q22fmm9m_kI0UHP6HRj3-7">
          <mxGeometry y="30" width="180" height="30" as="geometry" />
        </mxCell>
        <mxCell id="Q22fmm9m_kI0UHP6HRj3-9" value="PK" style="shape=partialRectangle;connectable=0;fillColor=none;top=0;left=0;bottom=0;right=0;fontStyle=1;overflow=hidden;fontSize=13;" vertex="1" parent="Q22fmm9m_kI0UHP6HRj3-8">
          <mxGeometry width="30" height="30" as="geometry">
            <mxRectangle width="30" height="30" as="alternateBounds" />
          </mxGeometry>
        </mxCell>
        <mxCell id="Q22fmm9m_kI0UHP6HRj3-10" value="EmployeeID" style="shape=partialRectangle;connectable=0;fillColor=none;top=0;left=0;bottom=0;right=0;align=left;spacingLeft=6;fontStyle=5;overflow=hidden;fontSize=13;" vertex="1" parent="Q22fmm9m_kI0UHP6HRj3-8">
          <mxGeometry x="30" width="150" height="30" as="geometry">
            <mxRectangle width="150" height="30" as="alternateBounds" />
          </mxGeometry>
        </mxCell>
        <mxCell id="Q22fmm9m_kI0UHP6HRj3-11" value="" style="shape=tableRow;horizontal=0;startSize=0;swimlaneHead=0;swimlaneBody=0;fillColor=none;collapsible=0;dropTarget=0;points=[[0,0.5],[1,0.5]];portConstraint=eastwest;top=0;left=0;right=0;bottom=0;fontSize=13;" vertex="1" parent="Q22fmm9m_kI0UHP6HRj3-7">
          <mxGeometry y="60" width="180" height="30" as="geometry" />
        </mxCell>
        <mxCell id="Q22fmm9m_kI0UHP6HRj3-12" value="" style="shape=partialRectangle;connectable=0;fillColor=none;top=0;left=0;bottom=0;right=0;editable=1;overflow=hidden;fontSize=13;" vertex="1" parent="Q22fmm9m_kI0UHP6HRj3-11">
          <mxGeometry width="30" height="30" as="geometry">
            <mxRectangle width="30" height="30" as="alternateBounds" />
          </mxGeometry>
        </mxCell>
        <mxCell id="Q22fmm9m_kI0UHP6HRj3-13" value="First Name" style="shape=partialRectangle;connectable=0;fillColor=none;top=0;left=0;bottom=0;right=0;align=left;spacingLeft=6;overflow=hidden;fontSize=13;" vertex="1" parent="Q22fmm9m_kI0UHP6HRj3-11">
          <mxGeometry x="30" width="150" height="30" as="geometry">
            <mxRectangle width="150" height="30" as="alternateBounds" />
          </mxGeometry>
        </mxCell>
        <mxCell id="Q22fmm9m_kI0UHP6HRj3-14" value="" style="shape=tableRow;horizontal=0;startSize=0;swimlaneHead=0;swimlaneBody=0;fillColor=none;collapsible=0;dropTarget=0;points=[[0,0.5],[1,0.5]];portConstraint=eastwest;top=0;left=0;right=0;bottom=0;fontSize=13;" vertex="1" parent="Q22fmm9m_kI0UHP6HRj3-7">
          <mxGeometry y="90" width="180" height="30" as="geometry" />
        </mxCell>
        <mxCell id="Q22fmm9m_kI0UHP6HRj3-15" value="" style="shape=partialRectangle;connectable=0;fillColor=none;top=0;left=0;bottom=0;right=0;editable=1;overflow=hidden;fontSize=13;" vertex="1" parent="Q22fmm9m_kI0UHP6HRj3-14">
          <mxGeometry width="30" height="30" as="geometry">
            <mxRectangle width="30" height="30" as="alternateBounds" />
          </mxGeometry>
        </mxCell>
        <mxCell id="Q22fmm9m_kI0UHP6HRj3-16" value="Last Name" style="shape=partialRectangle;connectable=0;fillColor=none;top=0;left=0;bottom=0;right=0;align=left;spacingLeft=6;overflow=hidden;fontSize=13;" vertex="1" parent="Q22fmm9m_kI0UHP6HRj3-14">
          <mxGeometry x="30" width="150" height="30" as="geometry">
            <mxRectangle width="150" height="30" as="alternateBounds" />
          </mxGeometry>
        </mxCell>
        <mxCell id="Q22fmm9m_kI0UHP6HRj3-17" value="" style="shape=tableRow;horizontal=0;startSize=0;swimlaneHead=0;swimlaneBody=0;fillColor=none;collapsible=0;dropTarget=0;points=[[0,0.5],[1,0.5]];portConstraint=eastwest;top=0;left=0;right=0;bottom=0;fontSize=13;" vertex="1" parent="Q22fmm9m_kI0UHP6HRj3-7">
          <mxGeometry y="120" width="180" height="30" as="geometry" />
        </mxCell>
        <mxCell id="Q22fmm9m_kI0UHP6HRj3-18" value="" style="shape=partialRectangle;connectable=0;fillColor=none;top=0;left=0;bottom=0;right=0;editable=1;overflow=hidden;fontSize=13;" vertex="1" parent="Q22fmm9m_kI0UHP6HRj3-17">
          <mxGeometry width="30" height="30" as="geometry">
            <mxRectangle width="30" height="30" as="alternateBounds" />
          </mxGeometry>
        </mxCell>
        <mxCell id="Q22fmm9m_kI0UHP6HRj3-19" value="Zipcode" style="shape=partialRectangle;connectable=0;fillColor=none;top=0;left=0;bottom=0;right=0;align=left;spacingLeft=6;overflow=hidden;fontSize=13;" vertex="1" parent="Q22fmm9m_kI0UHP6HRj3-17">
          <mxGeometry x="30" width="150" height="30" as="geometry">
            <mxRectangle width="150" height="30" as="alternateBounds" />
          </mxGeometry>
        </mxCell>
        <mxCell id="Q22fmm9m_kI0UHP6HRj3-20" value="Customer" style="shape=table;startSize=30;container=1;collapsible=1;childLayout=tableLayout;fixedRows=1;rowLines=0;fontStyle=1;align=center;resizeLast=1;fontSize=13;" vertex="1" parent="1">
          <mxGeometry x="500" y="-1060" width="180" height="150" as="geometry" />
        </mxCell>
        <mxCell id="Q22fmm9m_kI0UHP6HRj3-21" value="" style="shape=tableRow;horizontal=0;startSize=0;swimlaneHead=0;swimlaneBody=0;fillColor=none;collapsible=0;dropTarget=0;points=[[0,0.5],[1,0.5]];portConstraint=eastwest;top=0;left=0;right=0;bottom=1;fontSize=13;" vertex="1" parent="Q22fmm9m_kI0UHP6HRj3-20">
          <mxGeometry y="30" width="180" height="30" as="geometry" />
        </mxCell>
        <mxCell id="Q22fmm9m_kI0UHP6HRj3-22" value="PK" style="shape=partialRectangle;connectable=0;fillColor=none;top=0;left=0;bottom=0;right=0;fontStyle=1;overflow=hidden;fontSize=13;" vertex="1" parent="Q22fmm9m_kI0UHP6HRj3-21">
          <mxGeometry width="30" height="30" as="geometry">
            <mxRectangle width="30" height="30" as="alternateBounds" />
          </mxGeometry>
        </mxCell>
        <mxCell id="Q22fmm9m_kI0UHP6HRj3-23" value="CustomerID" style="shape=partialRectangle;connectable=0;fillColor=none;top=0;left=0;bottom=0;right=0;align=left;spacingLeft=6;fontStyle=5;overflow=hidden;fontSize=13;" vertex="1" parent="Q22fmm9m_kI0UHP6HRj3-21">
          <mxGeometry x="30" width="150" height="30" as="geometry">
            <mxRectangle width="150" height="30" as="alternateBounds" />
          </mxGeometry>
        </mxCell>
        <mxCell id="Q22fmm9m_kI0UHP6HRj3-24" value="" style="shape=tableRow;horizontal=0;startSize=0;swimlaneHead=0;swimlaneBody=0;fillColor=none;collapsible=0;dropTarget=0;points=[[0,0.5],[1,0.5]];portConstraint=eastwest;top=0;left=0;right=0;bottom=0;fontSize=13;" vertex="1" parent="Q22fmm9m_kI0UHP6HRj3-20">
          <mxGeometry y="60" width="180" height="30" as="geometry" />
        </mxCell>
        <mxCell id="Q22fmm9m_kI0UHP6HRj3-25" value="" style="shape=partialRectangle;connectable=0;fillColor=none;top=0;left=0;bottom=0;right=0;editable=1;overflow=hidden;fontSize=13;" vertex="1" parent="Q22fmm9m_kI0UHP6HRj3-24">
          <mxGeometry width="30" height="30" as="geometry">
            <mxRectangle width="30" height="30" as="alternateBounds" />
          </mxGeometry>
        </mxCell>
        <mxCell id="Q22fmm9m_kI0UHP6HRj3-26" value="First Name" style="shape=partialRectangle;connectable=0;fillColor=none;top=0;left=0;bottom=0;right=0;align=left;spacingLeft=6;overflow=hidden;fontSize=13;" vertex="1" parent="Q22fmm9m_kI0UHP6HRj3-24">
          <mxGeometry x="30" width="150" height="30" as="geometry">
            <mxRectangle width="150" height="30" as="alternateBounds" />
          </mxGeometry>
        </mxCell>
        <mxCell id="Q22fmm9m_kI0UHP6HRj3-27" value="" style="shape=tableRow;horizontal=0;startSize=0;swimlaneHead=0;swimlaneBody=0;fillColor=none;collapsible=0;dropTarget=0;points=[[0,0.5],[1,0.5]];portConstraint=eastwest;top=0;left=0;right=0;bottom=0;fontSize=13;" vertex="1" parent="Q22fmm9m_kI0UHP6HRj3-20">
          <mxGeometry y="90" width="180" height="30" as="geometry" />
        </mxCell>
        <mxCell id="Q22fmm9m_kI0UHP6HRj3-28" value="" style="shape=partialRectangle;connectable=0;fillColor=none;top=0;left=0;bottom=0;right=0;editable=1;overflow=hidden;fontSize=13;" vertex="1" parent="Q22fmm9m_kI0UHP6HRj3-27">
          <mxGeometry width="30" height="30" as="geometry">
            <mxRectangle width="30" height="30" as="alternateBounds" />
          </mxGeometry>
        </mxCell>
        <mxCell id="Q22fmm9m_kI0UHP6HRj3-29" value="Last Name" style="shape=partialRectangle;connectable=0;fillColor=none;top=0;left=0;bottom=0;right=0;align=left;spacingLeft=6;overflow=hidden;fontSize=13;" vertex="1" parent="Q22fmm9m_kI0UHP6HRj3-27">
          <mxGeometry x="30" width="150" height="30" as="geometry">
            <mxRectangle width="150" height="30" as="alternateBounds" />
          </mxGeometry>
        </mxCell>
        <mxCell id="Q22fmm9m_kI0UHP6HRj3-30" value="" style="shape=tableRow;horizontal=0;startSize=0;swimlaneHead=0;swimlaneBody=0;fillColor=none;collapsible=0;dropTarget=0;points=[[0,0.5],[1,0.5]];portConstraint=eastwest;top=0;left=0;right=0;bottom=0;fontSize=13;" vertex="1" parent="Q22fmm9m_kI0UHP6HRj3-20">
          <mxGeometry y="120" width="180" height="30" as="geometry" />
        </mxCell>
        <mxCell id="Q22fmm9m_kI0UHP6HRj3-31" value="" style="shape=partialRectangle;connectable=0;fillColor=none;top=0;left=0;bottom=0;right=0;editable=1;overflow=hidden;fontSize=13;" vertex="1" parent="Q22fmm9m_kI0UHP6HRj3-30">
          <mxGeometry width="30" height="30" as="geometry">
            <mxRectangle width="30" height="30" as="alternateBounds" />
          </mxGeometry>
        </mxCell>
        <mxCell id="Q22fmm9m_kI0UHP6HRj3-32" value="Zipcode" style="shape=partialRectangle;connectable=0;fillColor=none;top=0;left=0;bottom=0;right=0;align=left;spacingLeft=6;overflow=hidden;fontSize=13;" vertex="1" parent="Q22fmm9m_kI0UHP6HRj3-30">
          <mxGeometry x="30" width="150" height="30" as="geometry">
            <mxRectangle width="150" height="30" as="alternateBounds" />
          </mxGeometry>
        </mxCell>
        <mxCell id="Q22fmm9m_kI0UHP6HRj3-33" value="Parts" style="shape=table;startSize=30;container=1;collapsible=1;childLayout=tableLayout;fixedRows=1;rowLines=0;fontStyle=1;align=center;resizeLast=1;fontSize=13;" vertex="1" parent="1">
          <mxGeometry x="500" y="-850" width="180" height="150" as="geometry" />
        </mxCell>
        <mxCell id="Q22fmm9m_kI0UHP6HRj3-34" value="" style="shape=tableRow;horizontal=0;startSize=0;swimlaneHead=0;swimlaneBody=0;fillColor=none;collapsible=0;dropTarget=0;points=[[0,0.5],[1,0.5]];portConstraint=eastwest;top=0;left=0;right=0;bottom=1;fontSize=13;" vertex="1" parent="Q22fmm9m_kI0UHP6HRj3-33">
          <mxGeometry y="30" width="180" height="30" as="geometry" />
        </mxCell>
        <mxCell id="Q22fmm9m_kI0UHP6HRj3-35" value="PK" style="shape=partialRectangle;connectable=0;fillColor=none;top=0;left=0;bottom=0;right=0;fontStyle=1;overflow=hidden;fontSize=13;" vertex="1" parent="Q22fmm9m_kI0UHP6HRj3-34">
          <mxGeometry width="30" height="30" as="geometry">
            <mxRectangle width="30" height="30" as="alternateBounds" />
          </mxGeometry>
        </mxCell>
        <mxCell id="Q22fmm9m_kI0UHP6HRj3-36" value="PartID" style="shape=partialRectangle;connectable=0;fillColor=none;top=0;left=0;bottom=0;right=0;align=left;spacingLeft=6;fontStyle=5;overflow=hidden;fontSize=13;" vertex="1" parent="Q22fmm9m_kI0UHP6HRj3-34">
          <mxGeometry x="30" width="150" height="30" as="geometry">
            <mxRectangle width="150" height="30" as="alternateBounds" />
          </mxGeometry>
        </mxCell>
        <mxCell id="Q22fmm9m_kI0UHP6HRj3-37" value="" style="shape=tableRow;horizontal=0;startSize=0;swimlaneHead=0;swimlaneBody=0;fillColor=none;collapsible=0;dropTarget=0;points=[[0,0.5],[1,0.5]];portConstraint=eastwest;top=0;left=0;right=0;bottom=0;fontSize=13;" vertex="1" parent="Q22fmm9m_kI0UHP6HRj3-33">
          <mxGeometry y="60" width="180" height="30" as="geometry" />
        </mxCell>
        <mxCell id="Q22fmm9m_kI0UHP6HRj3-38" value="" style="shape=partialRectangle;connectable=0;fillColor=none;top=0;left=0;bottom=0;right=0;editable=1;overflow=hidden;fontSize=13;" vertex="1" parent="Q22fmm9m_kI0UHP6HRj3-37">
          <mxGeometry width="30" height="30" as="geometry">
            <mxRectangle width="30" height="30" as="alternateBounds" />
          </mxGeometry>
        </mxCell>
        <mxCell id="Q22fmm9m_kI0UHP6HRj3-39" value="Name" style="shape=partialRectangle;connectable=0;fillColor=none;top=0;left=0;bottom=0;right=0;align=left;spacingLeft=6;overflow=hidden;fontSize=13;" vertex="1" parent="Q22fmm9m_kI0UHP6HRj3-37">
          <mxGeometry x="30" width="150" height="30" as="geometry">
            <mxRectangle width="150" height="30" as="alternateBounds" />
          </mxGeometry>
        </mxCell>
        <mxCell id="Q22fmm9m_kI0UHP6HRj3-40" value="" style="shape=tableRow;horizontal=0;startSize=0;swimlaneHead=0;swimlaneBody=0;fillColor=none;collapsible=0;dropTarget=0;points=[[0,0.5],[1,0.5]];portConstraint=eastwest;top=0;left=0;right=0;bottom=0;fontSize=13;" vertex="1" parent="Q22fmm9m_kI0UHP6HRj3-33">
          <mxGeometry y="90" width="180" height="30" as="geometry" />
        </mxCell>
        <mxCell id="Q22fmm9m_kI0UHP6HRj3-41" value="" style="shape=partialRectangle;connectable=0;fillColor=none;top=0;left=0;bottom=0;right=0;editable=1;overflow=hidden;fontSize=13;" vertex="1" parent="Q22fmm9m_kI0UHP6HRj3-40">
          <mxGeometry width="30" height="30" as="geometry">
            <mxRectangle width="30" height="30" as="alternateBounds" />
          </mxGeometry>
        </mxCell>
        <mxCell id="Q22fmm9m_kI0UHP6HRj3-42" value="Price" style="shape=partialRectangle;connectable=0;fillColor=none;top=0;left=0;bottom=0;right=0;align=left;spacingLeft=6;overflow=hidden;fontSize=13;" vertex="1" parent="Q22fmm9m_kI0UHP6HRj3-40">
          <mxGeometry x="30" width="150" height="30" as="geometry">
            <mxRectangle width="150" height="30" as="alternateBounds" />
          </mxGeometry>
        </mxCell>
        <mxCell id="Q22fmm9m_kI0UHP6HRj3-43" value="" style="shape=tableRow;horizontal=0;startSize=0;swimlaneHead=0;swimlaneBody=0;fillColor=none;collapsible=0;dropTarget=0;points=[[0,0.5],[1,0.5]];portConstraint=eastwest;top=0;left=0;right=0;bottom=0;fontSize=13;" vertex="1" parent="Q22fmm9m_kI0UHP6HRj3-33">
          <mxGeometry y="120" width="180" height="30" as="geometry" />
        </mxCell>
        <mxCell id="Q22fmm9m_kI0UHP6HRj3-44" value="" style="shape=partialRectangle;connectable=0;fillColor=none;top=0;left=0;bottom=0;right=0;editable=1;overflow=hidden;fontSize=13;" vertex="1" parent="Q22fmm9m_kI0UHP6HRj3-43">
          <mxGeometry width="30" height="30" as="geometry">
            <mxRectangle width="30" height="30" as="alternateBounds" />
          </mxGeometry>
        </mxCell>
        <mxCell id="Q22fmm9m_kI0UHP6HRj3-45" value="Quantity" style="shape=partialRectangle;connectable=0;fillColor=none;top=0;left=0;bottom=0;right=0;align=left;spacingLeft=6;overflow=hidden;fontSize=13;" vertex="1" parent="Q22fmm9m_kI0UHP6HRj3-43">
          <mxGeometry x="30" width="150" height="30" as="geometry">
            <mxRectangle width="150" height="30" as="alternateBounds" />
          </mxGeometry>
        </mxCell>
        <mxCell id="Q22fmm9m_kI0UHP6HRj3-66" style="edgeStyle=orthogonalEdgeStyle;rounded=0;orthogonalLoop=1;jettySize=auto;html=1;exitX=0.25;exitY=1;exitDx=0;exitDy=0;fontSize=13;endArrow=none;endFill=0;entryX=0.5;entryY=0;entryDx=0;entryDy=0;" edge="1" parent="1" source="Q22fmm9m_kI0UHP6HRj3-46" target="Q22fmm9m_kI0UHP6HRj3-67">
          <mxGeometry relative="1" as="geometry">
            <mxPoint x="-110" y="-230" as="targetPoint" />
            <Array as="points">
              <mxPoint x="-60" y="-290" />
              <mxPoint x="-60" y="-255" />
              <mxPoint x="-180" y="-255" />
            </Array>
          </mxGeometry>
        </mxCell>
        <mxCell id="Q22fmm9m_kI0UHP6HRj3-73" style="edgeStyle=orthogonalEdgeStyle;rounded=0;orthogonalLoop=1;jettySize=auto;html=1;exitX=0.75;exitY=1;exitDx=0;exitDy=0;entryX=0.5;entryY=0;entryDx=0;entryDy=0;fontSize=13;endArrow=none;endFill=0;" edge="1" parent="1" source="Q22fmm9m_kI0UHP6HRj3-46" target="Q22fmm9m_kI0UHP6HRj3-70">
          <mxGeometry relative="1" as="geometry" />
        </mxCell>
        <mxCell id="Q22fmm9m_kI0UHP6HRj3-76" style="edgeStyle=orthogonalEdgeStyle;rounded=0;orthogonalLoop=1;jettySize=auto;html=1;exitX=0.25;exitY=1;exitDx=0;exitDy=0;entryX=0.71;entryY=0.05;entryDx=0;entryDy=0;entryPerimeter=0;fontSize=13;endArrow=none;endFill=0;" edge="1" parent="1" source="Q22fmm9m_kI0UHP6HRj3-46" target="Q22fmm9m_kI0UHP6HRj3-74">
          <mxGeometry relative="1" as="geometry" />
        </mxCell>
        <mxCell id="Q22fmm9m_kI0UHP6HRj3-77" style="edgeStyle=orthogonalEdgeStyle;rounded=0;orthogonalLoop=1;jettySize=auto;html=1;exitX=0.5;exitY=1;exitDx=0;exitDy=0;fontSize=13;endArrow=none;endFill=0;" edge="1" parent="1" source="Q22fmm9m_kI0UHP6HRj3-46" target="Q22fmm9m_kI0UHP6HRj3-69">
          <mxGeometry relative="1" as="geometry">
            <Array as="points">
              <mxPoint x="-20" y="-240" />
              <mxPoint x="40" y="-240" />
            </Array>
          </mxGeometry>
        </mxCell>
        <mxCell id="Q22fmm9m_kI0UHP6HRj3-46" value="Customer" style="whiteSpace=wrap;html=1;align=center;fontSize=13;" vertex="1" parent="1">
          <mxGeometry x="-70" y="-330" width="100" height="40" as="geometry" />
        </mxCell>
        <mxCell id="Q22fmm9m_kI0UHP6HRj3-58" style="edgeStyle=orthogonalEdgeStyle;rounded=0;orthogonalLoop=1;jettySize=auto;html=1;exitX=0.25;exitY=1;exitDx=0;exitDy=0;fontSize=13;endArrow=none;endFill=0;" edge="1" parent="1" source="Q22fmm9m_kI0UHP6HRj3-47" target="Q22fmm9m_kI0UHP6HRj3-59">
          <mxGeometry relative="1" as="geometry">
            <mxPoint x="705" y="-210" as="targetPoint" />
            <Array as="points">
              <mxPoint x="705" y="-240" />
              <mxPoint x="560" y="-240" />
            </Array>
          </mxGeometry>
        </mxCell>
        <mxCell id="Q22fmm9m_kI0UHP6HRj3-60" style="edgeStyle=orthogonalEdgeStyle;rounded=0;orthogonalLoop=1;jettySize=auto;html=1;exitX=0.5;exitY=1;exitDx=0;exitDy=0;fontSize=13;endArrow=none;endFill=0;" edge="1" parent="1" source="Q22fmm9m_kI0UHP6HRj3-47" target="Q22fmm9m_kI0UHP6HRj3-61">
          <mxGeometry relative="1" as="geometry">
            <mxPoint x="720" y="-190" as="targetPoint" />
          </mxGeometry>
        </mxCell>
        <mxCell id="Q22fmm9m_kI0UHP6HRj3-62" style="edgeStyle=orthogonalEdgeStyle;rounded=0;orthogonalLoop=1;jettySize=auto;html=1;exitX=0.75;exitY=1;exitDx=0;exitDy=0;fontSize=13;endArrow=none;endFill=0;" edge="1" parent="1" source="Q22fmm9m_kI0UHP6HRj3-47">
          <mxGeometry relative="1" as="geometry">
            <mxPoint x="780" y="-130" as="targetPoint" />
          </mxGeometry>
        </mxCell>
        <mxCell id="Q22fmm9m_kI0UHP6HRj3-65" style="edgeStyle=orthogonalEdgeStyle;rounded=0;orthogonalLoop=1;jettySize=auto;html=1;exitX=1;exitY=1;exitDx=0;exitDy=0;fontSize=13;endArrow=none;endFill=0;" edge="1" parent="1" source="Q22fmm9m_kI0UHP6HRj3-47" target="Q22fmm9m_kI0UHP6HRj3-64">
          <mxGeometry relative="1" as="geometry">
            <Array as="points">
              <mxPoint x="780" y="-240" />
              <mxPoint x="890" y="-240" />
            </Array>
          </mxGeometry>
        </mxCell>
        <mxCell id="Q22fmm9m_kI0UHP6HRj3-47" value="Parts" style="whiteSpace=wrap;html=1;align=center;fontSize=13;" vertex="1" parent="1">
          <mxGeometry x="680" y="-320" width="100" height="40" as="geometry" />
        </mxCell>
        <mxCell id="Q22fmm9m_kI0UHP6HRj3-49" value="Orders" style="shape=rhombus;perimeter=rhombusPerimeter;whiteSpace=wrap;html=1;align=center;fontSize=13;" vertex="1" parent="1">
          <mxGeometry x="290" y="-350" width="150" height="100" as="geometry" />
        </mxCell>
        <mxCell id="Q22fmm9m_kI0UHP6HRj3-59" value="&lt;u&gt;partID&lt;/u&gt;" style="ellipse;whiteSpace=wrap;html=1;align=center;fontSize=13;" vertex="1" parent="1">
          <mxGeometry x="510" y="-140" width="100" height="40" as="geometry" />
        </mxCell>
        <mxCell id="Q22fmm9m_kI0UHP6HRj3-61" value="name" style="ellipse;whiteSpace=wrap;html=1;align=center;fontSize=13;" vertex="1" parent="1">
          <mxGeometry x="620" y="-140" width="100" height="40" as="geometry" />
        </mxCell>
        <mxCell id="Q22fmm9m_kI0UHP6HRj3-63" value="price" style="ellipse;whiteSpace=wrap;html=1;align=center;fontSize=13;" vertex="1" parent="1">
          <mxGeometry x="730" y="-140" width="100" height="40" as="geometry" />
        </mxCell>
        <mxCell id="Q22fmm9m_kI0UHP6HRj3-64" value="quantity" style="ellipse;whiteSpace=wrap;html=1;align=center;fontSize=13;" vertex="1" parent="1">
          <mxGeometry x="840" y="-140" width="100" height="40" as="geometry" />
        </mxCell>
        <mxCell id="Q22fmm9m_kI0UHP6HRj3-67" value="&lt;u&gt;customerID&lt;/u&gt;" style="ellipse;whiteSpace=wrap;html=1;align=center;fontSize=13;" vertex="1" parent="1">
          <mxGeometry x="-230" y="-220" width="100" height="40" as="geometry" />
        </mxCell>
        <mxCell id="Q22fmm9m_kI0UHP6HRj3-69" value="price" style="ellipse;whiteSpace=wrap;html=1;align=center;fontSize=13;" vertex="1" parent="1">
          <mxGeometry x="-10" y="-220" width="100" height="40" as="geometry" />
        </mxCell>
        <mxCell id="Q22fmm9m_kI0UHP6HRj3-70" value="quantity" style="ellipse;whiteSpace=wrap;html=1;align=center;fontSize=13;" vertex="1" parent="1">
          <mxGeometry x="110" y="-220" width="100" height="40" as="geometry" />
        </mxCell>
        <mxCell id="Q22fmm9m_kI0UHP6HRj3-74" value="Name" style="ellipse;shape=doubleEllipse;margin=3;whiteSpace=wrap;html=1;align=center;fontSize=13;" vertex="1" parent="1">
          <mxGeometry x="-120" y="-220" width="100" height="40" as="geometry" />
        </mxCell>
      </root>
    </mxGraphModel>
  </diagram>
</mxfile>
